<?xml version="1.0" standalone="no"?>
<!DOCTYPE svg PUBLIC "-//W3C//DTD SVG 20010904//EN"
 "http://www.w3.org/TR/2001/REC-SVG-20010904/DTD/svg10.dtd">
<svg version="1.0" xmlns="http://www.w3.org/2000/svg"
 width="952.000000pt" height="952.000000pt" viewBox="0 0 952.000000 952.000000"
 preserveAspectRatio="xMidYMid meet">
<metadata>
Created by potrace 1.11, written by Peter Selinger 2001-2013
</metadata>
<g transform="translate(0.000000,952.000000) scale(0.100000,-0.100000)"
fill="#000000" stroke="none">
<path d="M4375 8875 c-816 -67 -1569 -345 -2255 -835 -74 -52 -286 -220 -325
-257 -11 -10 -56 -50 -100 -88 -128 -110 -332 -338 -506 -565 -288 -377 -530
-871 -649 -1325 -33 -127 -83 -381 -99 -508 -18 -139 -41 -461 -41 -582 0
-249 44 -625 101 -860 19 -80 81 -292 106 -365 41 -120 68 -190 94 -248 16
-35 29 -66 29 -68 0 -7 72 -152 109 -219 290 -522 646 -958 1084 -1322 72 -61
274 -208 362 -265 460 -299 936 -496 1505 -623 245 -55 565 -91 895 -101 397
-12 860 42 1265 147 204 53 453 139 593 203 29 13 84 38 122 56 105 48 336
175 460 253 419 262 787 589 1096 972 514 637 821 1399 880 2185 34 451 6 831
-86 1200 -9 36 -22 90 -30 120 -27 117 -129 406 -186 528 -16 35 -29 66 -29
69 0 10 -131 263 -185 358 -453 787 -1080 1351 -1940 1745 -35 16 -93 41 -127
55 -35 15 -76 32 -93 39 -63 28 -344 123 -410 139 -11 3 -63 16 -115 30 -268
70 -512 107 -860 132 -253 18 -445 17 -665 0z m1036 -1155 c84 -16 168 -62
236 -131 34 -34 70 -77 79 -95 18 -33 18 -34 -6 -59 -32 -34 -136 -85 -173
-85 -22 0 -43 13 -79 46 -62 58 -102 74 -181 74 -111 0 -169 -38 -171 -111 -1
-34 4 -45 28 -64 15 -12 45 -27 65 -33 58 -18 214 -59 321 -87 77 -19 149 -63
189 -114 86 -108 102 -301 36 -432 -76 -150 -333 -248 -550 -210 -115 20 -205
69 -296 160 -43 43 -79 87 -79 97 0 40 131 124 194 124 27 0 50 -12 103 -55
58 -46 77 -56 134 -66 108 -19 209 12 249 76 30 48 23 106 -16 140 -35 30 -80
47 -229 85 -190 48 -268 83 -338 149 -68 63 -82 101 -82 221 0 91 3 111 24
154 84 168 312 259 542 216z m-1771 -455 c5 -470 4 -456 66 -519 42 -42 81
-58 151 -64 99 -8 177 31 220 111 16 29 18 70 18 455 0 409 1 424 20 438 15
11 47 14 135 12 l115 -3 2 -200 c1 -110 7 -270 13 -355 13 -200 -3 -353 -49
-454 -57 -126 -197 -236 -339 -265 -77 -16 -210 -14 -272 5 -118 35 -237 129
-293 231 -41 76 -56 154 -59 298 -3 139 11 711 18 733 3 10 33 12 126 10 l123
-3 5 -430z m-1940 -578 c213 -73 503 -144 905 -221 138 -26 435 -72 560 -85
50 -6 128 -15 175 -20 159 -19 444 -40 675 -52 313 -16 888 -15 1046 1 160 16
213 6 270 -51 86 -86 123 -224 81 -306 -12 -22 -28 -47 -36 -55 -7 -8 -23 -33
-35 -56 l-22 -42 26 -10 c14 -5 69 -13 123 -16 53 -4 106 -10 116 -14 11 -4
51 3 93 17 41 12 86 23 101 23 37 -1 99 -31 142 -70 48 -43 101 -78 125 -82
18 -3 21 4 25 62 l5 65 428 3 c400 2 428 1 435 -15 9 -23 9 -193 0 -215 -7
-17 -30 -18 -288 -18 l-280 0 -10 -26 c-11 -28 -14 -163 -4 -188 5 -14 33 -16
205 -16 234 0 219 9 219 -135 0 -144 15 -135 -220 -135 l-199 0 -6 -32 c-3
-18 -5 -69 -3 -113 l3 -80 60 -6 c33 -4 162 -7 288 -8 l227 -1 10 -26 c13 -33
13 -175 0 -208 l-10 -26 -419 0 c-389 0 -419 1 -427 18 -4 9 -9 214 -12 455
l-4 438 -37 23 c-64 41 -141 77 -141 66 0 -5 13 -47 29 -93 16 -46 32 -107 36
-136 9 -68 10 -220 1 -291 -29 -223 -195 -407 -421 -465 -63 -16 -380 -21
-542 -8 l-83 6 1 586 c1 322 4 600 8 616 l6 30 108 5 109 5 27 71 c15 38 42
96 59 129 l32 58 -28 49 -27 48 -555 4 c-305 2 -611 9 -680 15 -69 5 -190 15
-270 21 -318 23 -595 55 -950 110 -91 14 -370 65 -460 85 -36 8 -118 26 -183
40 -121 26 -451 109 -482 121 -16 6 -17 -3 -10 -142 8 -183 5 -190 -79 -187
-42 1 -76 12 -141 44 -49 24 -90 38 -95 33 -4 -5 -10 -81 -13 -169 -5 -200 0
-178 -138 -570 -50 -142 -72 -309 -63 -465 5 -85 49 -366 74 -477 6 -23 10
-107 10 -186 0 -104 4 -157 16 -193 56 -174 117 -313 159 -363 26 -30 30 -32
36 -15 4 11 8 61 7 113 0 51 4 97 9 101 11 12 319 30 498 30 290 0 443 -64
521 -218 24 -48 30 -72 32 -149 4 -106 -11 -167 -64 -250 -32 -50 -115 -122
-141 -123 -26 0 -12 -28 26 -53 46 -31 140 -60 178 -55 22 2 33 15 64 78 21
41 54 120 74 175 21 55 66 172 100 260 35 88 77 197 95 243 l31 82 134 0 134
0 15 -32 c14 -32 180 -445 216 -538 33 -87 231 -586 253 -640 33 -79 50 -85
221 -83 187 3 229 -16 325 -146 58 -79 72 -105 105 -201 40 -115 100 -191 199
-254 77 -48 130 -66 218 -73 l79 -6 0 31 c0 17 -11 76 -25 131 -22 86 -24 106
-15 148 15 67 26 81 175 228 97 96 151 159 205 240 40 61 93 131 118 157 l46
48 -34 72 c-19 40 -45 90 -57 111 l-23 37 -114 0 -113 0 -7 -31 c-3 -17 -6
-121 -6 -231 0 -151 -3 -200 -13 -203 -25 -10 -257 -10 -259 0 -2 6 -2 283 0
616 l2 606 118 7 c349 19 487 19 581 2 151 -28 225 -69 280 -155 77 -120 92
-260 39 -374 -30 -64 -110 -154 -163 -183 -19 -10 -35 -24 -35 -30 0 -41 200
-438 223 -442 9 -2 62 26 118 62 56 36 108 66 116 66 18 0 18 1 -31 98 -71
141 -71 141 -71 317 0 123 5 175 19 224 78 283 257 433 532 448 330 19 552
-122 640 -404 23 -76 35 -248 25 -370 -8 -96 -13 -117 -46 -183 l-37 -74 17
-60 c23 -86 85 -202 185 -346 47 -69 122 -181 165 -250 82 -127 181 -244 216
-255 67 -21 94 30 87 164 -5 101 -35 176 -112 276 -58 76 -145 195 -156 215
-6 10 -25 15 -57 16 -26 0 -63 1 -80 2 l-33 2 0 615 0 615 28 7 c36 9 180 9
214 0 27 -7 27 -9 30 -99 4 -111 13 -118 77 -61 39 35 43 43 51 103 5 45 2
121 -12 245 -31 293 -31 300 -18 370 10 52 25 85 66 148 30 44 54 92 54 104 0
27 -32 94 -53 112 -10 8 -48 11 -118 9 l-104 -3 -6 -30 c-4 -16 -7 -121 -8
-232 l-1 -203 -25 -6 c-33 -8 -201 -1 -212 9 -15 16 -21 200 -22 700 -1 312 3
505 9 517 5 10 23 21 40 25 20 4 36 17 47 38 8 18 31 56 51 85 44 67 84 88
272 142 137 39 246 83 281 112 31 26 47 75 59 188 11 108 30 173 62 211 31 37
131 109 164 118 67 19 106 -9 194 -139 32 -47 92 -122 133 -167 95 -105 120
-156 121 -246 l1 -68 -45 -42 c-25 -23 -65 -55 -90 -71 -25 -16 -64 -44 -87
-63 -37 -30 -43 -40 -43 -73 0 -32 11 -53 63 -122 82 -107 87 -117 87 -176 0
-91 -52 -146 -267 -279 -78 -48 -173 -112 -211 -142 l-69 -55 75 -160 c41 -89
89 -198 107 -244 l34 -83 -25 -10 c-35 -13 -182 -10 -223 4 -29 10 -39 21 -56
64 -27 67 -39 80 -60 63 -8 -7 -15 -17 -15 -22 0 -6 -7 -26 -17 -45 -15 -33
-15 -45 12 -236 35 -255 36 -372 2 -448 -30 -68 -79 -121 -187 -207 l-85 -68
0 -266 c0 -146 3 -270 7 -274 5 -4 136 -8 292 -8 220 -1 288 -4 298 -14 14
-14 19 -224 5 -238 -4 -4 -113 -8 -242 -8 -158 -1 -238 -5 -245 -12 -8 -8 5
-36 53 -105 35 -52 85 -134 111 -182 40 -73 49 -100 55 -160 3 -40 3 -103 -2
-142 -11 -99 -38 -135 -134 -181 -75 -36 -185 -36 -246 -1 -79 46 -156 143
-303 379 -16 26 -65 100 -108 165 -77 113 -166 275 -166 301 0 20 -24 14 -114
-32 -108 -56 -188 -71 -333 -64 -116 6 -201 30 -260 74 -17 13 -39 24 -48 24
-25 0 -170 -76 -239 -125 -91 -64 -133 -85 -172 -85 -47 0 -67 12 -142 81 -47
44 -72 60 -102 65 -28 5 -41 12 -46 28 -9 31 -34 55 -50 49 -8 -3 -39 -42 -69
-88 -72 -109 -139 -192 -239 -295 -45 -47 -93 -100 -105 -118 -26 -37 -25 -52
8 -197 12 -49 24 -126 27 -170 9 -111 11 -109 -169 -102 -127 5 -220 20 -282
46 -121 50 -182 89 -250 162 -75 80 -111 137 -151 241 -35 93 -84 177 -122
212 -18 16 -40 19 -149 21 -108 2 -138 6 -195 27 -81 30 -140 76 -174 134 -14
24 -33 45 -42 46 -10 0 -21 2 -27 3 -5 2 -17 3 -26 4 -10 1 -21 18 -28 44 -14
46 -39 106 -75 177 l-22 45 -232 3 -231 2 -25 -37 c-13 -21 -36 -74 -51 -118
-38 -114 -39 -115 -126 -119 -41 -2 -98 -2 -126 1 -48 5 -53 8 -53 30 0 13 14
56 30 95 41 96 40 114 -7 122 -67 12 -235 102 -300 161 l-61 55 -160 0 c-116
0 -163 -3 -168 -12 -4 -7 -7 -102 -7 -213 1 -110 0 -207 -3 -216 -6 -21 -104
-32 -203 -23 l-71 7 0 348 0 349 -52 57 c-28 32 -67 74 -86 93 -29 29 -58 83
-142 265 -73 157 -99 275 -110 489 -6 127 -17 217 -35 301 -54 256 -68 421
-44 564 13 82 47 222 66 275 34 96 95 306 114 390 13 60 22 145 25 251 7 198
18 236 75 259 52 21 98 10 162 -39 76 -58 78 -55 71 88 -4 68 -4 140 0 161 13
67 55 66 266 -7z m3021 -3 c4 -10 8 -65 8 -122 1 -89 -1 -104 -16 -110 -10 -4
-64 -7 -119 -7 -137 1 -135 -1 -132 139 l3 111 95 5 c138 7 153 6 161 -16z
m1429 16 c15 -1 20 -185 7 -232 -7 -25 -9 -26 -89 -27 -46 -1 -102 2 -125 5
l-43 6 0 122 c0 68 2 125 4 127 3 3 196 3 246 -1z m-2935 -905 c111 -23 199
-72 283 -159 129 -133 171 -271 159 -516 -14 -275 -114 -450 -316 -553 -115
-58 -174 -70 -332 -65 l-127 4 -94 46 c-159 80 -240 168 -300 330 -31 83 -31
84 -32 288 0 196 1 208 25 270 77 200 237 324 474 366 77 14 153 10 260 -11z
m-1245 -19 c118 -28 205 -97 255 -202 49 -103 49 -254 0 -339 l-26 -43 55 -62
c36 -40 58 -74 62 -97 10 -53 -2 -202 -21 -258 -35 -106 -121 -191 -224 -223
-48 -14 -105 -17 -406 -17 -192 0 -358 3 -367 7 -17 7 -18 45 -18 603 0 383 4
603 10 615 9 17 19 19 108 14 53 -3 144 -1 202 4 158 14 308 13 370 -2z m2557
-6 c121 -21 210 -87 264 -197 21 -42 24 -63 24 -168 0 -109 -2 -125 -26 -176
-34 -71 -86 -129 -144 -160 -25 -13 -45 -31 -45 -40 0 -9 40 -94 89 -190 48
-96 96 -198 106 -228 17 -52 17 -55 -1 -68 -12 -9 -53 -13 -135 -13 l-117 0
-106 213 c-58 117 -106 218 -106 224 0 7 -7 19 -16 27 -12 13 -39 16 -129 16
-108 0 -113 -1 -119 -22 -3 -13 -6 -116 -6 -230 0 -200 -1 -208 -21 -219 -28
-15 -224 -8 -240 8 -17 17 -27 1180 -11 1209 10 17 22 19 144 17 73 -2 183 1
243 6 118 9 267 5 352 -9z m-162 -1820 l0 -125 -171 -3 c-167 -2 -172 -3 -178
-24 -3 -12 -5 -229 -6 -482 0 -285 -4 -464 -10 -470 -11 -11 -231 -13 -248 -2
-9 5 -12 135 -12 487 0 263 -1 480 -2 481 -2 1 -84 4 -183 7 l-180 6 -3 114
c-1 63 0 121 2 128 4 11 97 13 498 11 l493 -3 0 -125z"/>
<path d="M8021 6439 c-26 -28 -32 -71 -29 -195 2 -81 0 -105 -14 -127 -26 -38
-65 -72 -117 -100 -43 -23 -266 -104 -391 -141 -58 -18 -100 -49 -100 -75 0
-14 18 -16 140 -13 164 4 262 -12 357 -58 114 -56 183 -146 206 -271 6 -32 15
-59 20 -59 25 0 82 37 98 64 28 46 24 64 -31 151 -28 44 -60 105 -71 135 -38
100 -6 192 93 264 116 86 158 119 158 123 0 13 -30 56 -80 113 -31 36 -76 93
-99 127 -58 87 -100 105 -140 62z"/>
<path d="M5183 5508 c-13 -20 -17 -662 -4 -686 8 -16 29 -23 94 -32 72 -11 94
-10 165 4 107 22 122 29 166 82 70 84 80 120 80 289 0 98 -4 163 -13 188 -27
78 -91 127 -201 153 -73 18 -276 19 -287 2z"/>
<path d="M7340 5496 c-7 -20 -13 -112 -11 -168 1 -10 10 -27 21 -38 18 -18 33
-20 178 -20 175 0 222 9 252 47 29 38 28 123 -3 158 -31 36 -79 44 -270 45
-157 0 -158 0 -167 -24z"/>
<path d="M6280 3836 c-82 -23 -147 -67 -189 -130 -44 -68 -55 -112 -54 -226 2
-207 54 -310 192 -378 78 -38 210 -44 291 -12 137 53 190 160 190 380 0 168
-34 249 -133 317 -86 58 -197 76 -297 49z"/>
<path d="M4988 3823 l-117 -4 -6 -42 c-3 -23 -5 -76 -3 -117 l3 -75 205 -3
c226 -3 251 2 277 51 35 69 12 146 -50 172 -39 15 -154 22 -309 18z"/>
<path d="M1682 3803 c-4 -10 -7 -63 -7 -118 l0 -100 45 -7 c25 -3 110 -7 190
-7 113 0 155 4 190 17 85 33 104 124 40 195 l-28 32 -211 3 c-197 3 -212 2
-219 -15z"/>
<path d="M2932 3678 c-7 -7 -12 -17 -12 -22 0 -6 -25 -73 -55 -150 -30 -76
-52 -142 -49 -147 7 -11 251 -12 258 -1 3 4 1 24 -4 43 -11 47 -111 289 -119
289 -4 0 -12 -5 -19 -12z"/>
<path d="M2950 5536 c-104 -29 -168 -88 -202 -186 -19 -55 -22 -87 -23 -210 0
-138 1 -147 27 -195 126 -237 477 -248 592 -18 36 72 51 202 37 328 -6 53 -18
110 -27 126 -22 43 -83 108 -118 126 -80 41 -198 53 -286 29z"/>
<path d="M1573 5513 c-9 -3 -13 -35 -13 -109 l0 -104 192 2 192 3 23 34 c27
40 30 97 7 130 -30 42 -71 51 -236 50 -84 0 -159 -3 -165 -6z"/>
<path d="M1638 5023 l-78 -4 0 -103 c0 -71 4 -106 13 -113 6 -4 95 -8 197 -8
239 0 272 15 272 122 0 103 -68 120 -404 106z"/>
<path d="M4069 5499 c-11 -22 -12 -206 -1 -213 5 -3 80 -8 168 -12 243 -10
314 18 314 126 0 36 -6 53 -24 73 -37 40 -89 48 -277 46 -151 -2 -171 -5 -180
-20z"/>
</g>
</svg>
